<svg width="138" height="152" viewBox="0 0 138 152" fill="none" xmlns="http://www.w3.org/2000/svg">
<g id="Card 04">
<path id="card" d="M0 24C0 10.7452 10.7452 0 24 0H114C127.255 0 138 10.7452 138 24V128C138 141.255 127.255 152 114 152H24C10.7452 152 0 141.255 0 128V24Z" fill="#E1E1E6"/>
<g id="icon">
<path id="Vector" d="M49.4211 80.4211C49.4211 83.5158 50.1211 86.4263 51.5211 89.1526C52.9211 91.8789 54.8737 94.1509 57.3789 95.9684C57.1825 95.3789 57.0351 94.7772 56.9368 94.1632C56.8386 93.5491 56.7895 92.9474 56.7895 92.3579C56.7895 90.786 57.0842 89.3123 57.6737 87.9368C58.2632 86.5614 59.1228 85.3088 60.2526 84.1789L68.5789 76L76.9053 84.1789C78.0351 85.3088 78.8947 86.5614 79.4842 87.9368C80.0737 89.3123 80.3684 90.786 80.3684 92.3579C80.3684 92.9474 80.3193 93.5491 80.2211 94.1632C80.1228 94.7772 79.9754 95.3789 79.7789 95.9684C82.2842 94.1509 84.2368 91.8789 85.6368 89.1526C87.0368 86.4263 87.7368 83.5158 87.7368 80.4211C87.7368 77.7684 87.1719 75.1772 86.0421 72.6474C84.9123 70.1175 83.2912 67.7965 81.1789 65.6842C80.1474 66.4211 79.0667 66.9982 77.9368 67.4158C76.807 67.8333 75.6772 68.0421 74.5474 68.0421C71.5509 68.0421 69.0702 67.0228 67.1053 64.9842C65.1403 62.9456 64.1579 60.3789 64.1579 57.2842V55.8105C61.8982 57.4316 59.8596 59.2246 58.0421 61.1895C56.2246 63.1544 54.6772 65.2053 53.4 67.3421C52.1228 69.4789 51.1403 71.6649 50.4526 73.9C49.7649 76.1351 49.4211 78.3088 49.4211 80.4211ZM68.5789 82.1895L63.3474 87.3474C62.6596 88.0351 62.1316 88.7965 61.7632 89.6316C61.3947 90.4667 61.2105 91.3754 61.2105 92.3579C61.2105 94.3719 61.9228 96.0789 63.3474 97.4789C64.7719 98.8789 66.5158 99.5789 68.5789 99.5789C70.6421 99.5789 72.386 98.8789 73.8105 97.4789C75.2351 96.0789 75.9474 94.3719 75.9474 92.3579C75.9474 91.3754 75.7632 90.4667 75.3947 89.6316C75.0263 88.7965 74.4982 88.0351 73.8105 87.3474L68.5789 82.1895ZM68.5789 48V57.7263C68.5789 59.3965 69.1561 60.7965 70.3105 61.9263C71.4649 63.0561 72.8772 63.6211 74.5474 63.6211C75.4316 63.6211 76.2544 63.4368 77.0158 63.0684C77.7772 62.7 78.4526 62.1474 79.0421 61.4105L80.3684 59.7895C84.0035 61.8526 86.8772 64.7263 88.9895 68.4105C91.1017 72.0947 92.1579 76.0982 92.1579 80.4211C92.1579 87.0035 89.8737 92.5789 85.3053 97.1474C80.7368 101.716 75.1614 104 68.5789 104C61.9965 104 56.4211 101.716 51.8526 97.1474C47.2842 92.5789 45 87.0035 45 80.4211C45 74.1333 47.1123 68.0789 51.3368 62.2579C55.5614 56.4368 61.3088 51.6842 68.5789 48Z" fill="#323238"/>
</g>
</g>
</svg>
