<svg width="138" height="152" viewBox="0 0 138 152" fill="none" xmlns="http://www.w3.org/2000/svg">
<g id="Card 02">
<path id="card" d="M0 24C0 10.7452 10.7452 0 24 0H114C127.255 0 138 10.7452 138 24V128C138 141.255 127.255 152 114 152H24C10.7452 152 0 141.255 0 128V24Z" fill="#02799D"/>
<g id="icon">
<path id="Vector" d="M53.5263 93.3333C52.9123 93.3333 52.375 93.1 51.9145 92.6333C51.4539 92.1667 51.2237 91.6222 51.2237 91C51.2237 90.3778 51.4539 89.8333 51.9145 89.3667C52.375 88.9 52.9123 88.6667 53.5263 88.6667C54.1404 88.6667 54.6776 88.9 55.1382 89.3667C55.5987 89.8333 55.8289 90.3778 55.8289 91C55.8289 91.6222 55.5987 92.1667 55.1382 92.6333C54.6776 93.1 54.1404 93.3333 53.5263 93.3333ZM85.1053 93.3333C84.4912 93.3333 83.9539 93.1 83.4934 92.6333C83.0329 92.1667 82.8026 91.6222 82.8026 91C82.8026 90.3778 83.0329 89.8333 83.4934 89.3667C83.9539 88.9 84.4912 88.6667 85.1053 88.6667C85.7193 88.6667 86.2566 88.9 86.7171 89.3667C87.1776 89.8333 87.4079 90.3778 87.4079 91C87.4079 91.6222 87.1776 92.1667 86.7171 92.6333C86.2566 93.1 85.7193 93.3333 85.1053 93.3333ZM61.4211 104C60.807 104 60.2697 103.767 59.8092 103.3C59.3487 102.833 59.1184 102.289 59.1184 101.667C59.1184 101.044 59.3487 100.5 59.8092 100.033C60.2697 99.5667 60.807 99.3333 61.4211 99.3333C62.0351 99.3333 62.5724 99.5667 63.0329 100.033C63.4934 100.5 63.7237 101.044 63.7237 101.667C63.7237 102.289 63.4934 102.833 63.0329 103.3C62.5724 103.767 62.0351 104 61.4211 104ZM69.3158 93.3333C68.7018 93.3333 68.1645 93.1 67.7039 92.6333C67.2434 92.1667 67.0132 91.6222 67.0132 91C67.0132 90.3778 67.2434 89.8333 67.7039 89.3667C68.1645 88.9 68.7018 88.6667 69.3158 88.6667C69.9298 88.6667 70.4671 88.9 70.9276 89.3667C71.3882 89.8333 71.6184 90.3778 71.6184 91C71.6184 91.6222 71.3882 92.1667 70.9276 92.6333C70.4671 93.1 69.9298 93.3333 69.3158 93.3333ZM77.2105 104C76.5965 104 76.0592 103.767 75.5987 103.3C75.1382 102.833 74.9079 102.289 74.9079 101.667C74.9079 101.044 75.1382 100.5 75.5987 100.033C76.0592 99.5667 76.5965 99.3333 77.2105 99.3333C77.8246 99.3333 78.3618 99.5667 78.8224 100.033C79.2829 100.5 79.5132 101.044 79.5132 101.667C79.5132 102.289 79.2829 102.833 78.8224 103.3C78.3618 103.767 77.8246 104 77.2105 104ZM56.8158 84C53 84 49.7434 82.6333 47.0461 79.9C44.3487 77.1667 43 73.8667 43 70C43 66.4889 44.239 63.3556 46.7171 60.6C49.1952 57.8444 52.2763 56.3333 55.9605 56.0667C57.364 53.5778 59.2171 51.6111 61.5197 50.1667C63.8224 48.7222 66.4211 48 69.3158 48C73.307 48 76.6513 49.2778 79.3487 51.8333C82.0461 54.3889 83.7018 57.5556 84.3158 61.3333C87.7807 61.5111 90.5329 62.7 92.5724 64.9C94.6118 67.1 95.6316 69.6889 95.6316 72.6667C95.6316 75.7778 94.5461 78.4444 92.375 80.6667C90.2039 82.8889 87.5614 84 84.4474 84H56.8158ZM56.8158 80H84.4474C86.4649 80 88.1754 79.2778 89.5789 77.8333C90.9825 76.3889 91.6842 74.6444 91.6842 72.6C91.6842 70.6 90.9825 68.8889 89.5789 67.4667C88.1754 66.0444 86.4649 65.3333 84.4474 65.3333H80.5V63.3333C80.5 60.1778 79.4145 57.5 77.2434 55.3C75.0724 53.1 72.4298 52 69.3158 52C67.0789 52 65.0285 52.6111 63.1645 53.8333C61.3004 55.0556 59.9298 56.7111 59.0526 58.8L58.5263 60H56.6842C53.9649 60.0889 51.6623 61.1 49.7763 63.0333C47.8904 64.9667 46.9474 67.2889 46.9474 70C46.9474 72.7556 47.9123 75.1111 49.8421 77.0667C51.7719 79.0222 54.0965 80 56.8158 80Z" fill="white"/>
</g>
</g>
</svg>
