<svg width="138" height="152" viewBox="0 0 138 152" fill="none" xmlns="http://www.w3.org/2000/svg">
<g id="Card 03">
<path id="card" d="M0 24C0 10.7452 10.7452 0 24 0H114C127.255 0 138 10.7452 138 24V128C138 141.255 127.255 152 114 152H24C10.7452 152 0 141.255 0 128V24Z" fill="#E1E1E6"/>
<g id="icon">
<path id="Vector" d="M94.0812 72.9667V99.3333C94.0812 100.578 93.6633 101.667 92.8274 102.6C91.9916 103.533 91.0164 104 89.9019 104H48.0387C46.9242 104 45.949 103.533 45.1132 102.6C44.2773 101.667 43.8594 100.578 43.8594 99.3333V72.9667C42.5591 71.7222 41.7 70.1926 41.2821 68.3778C40.8642 66.563 40.9106 64.7481 41.4214 62.9333L44.4166 52.4333C44.7881 51.0333 45.4382 49.9444 46.367 49.1667C47.2957 48.3889 48.3638 48 49.5712 48H88.0908C89.3911 48 90.5288 48.4019 91.504 49.2056C92.4792 50.0093 93.1525 51.0852 93.524 52.4333L96.5889 62.9333C97.0997 64.7481 97.1345 66.563 96.6933 68.3778C96.2522 70.1926 95.3815 71.7222 94.0812 72.9667ZM75.2742 70.5556C76.6208 70.5556 77.7586 70.063 78.6873 69.0778C79.6161 68.0926 79.9875 66.9 79.8018 65.5L78.0604 52.6667H71.0948V65.5C71.0948 66.8481 71.4895 68.0278 72.279 69.0389C73.0684 70.05 74.0668 70.5556 75.2742 70.5556ZM62.2485 70.5556C63.5488 70.5556 64.6516 70.063 65.5572 69.0778C66.4627 68.0926 66.9155 66.9 66.9155 65.5V52.6667H59.9499L58.2085 65.5C58.0227 66.8481 58.3478 68.0278 59.1837 69.0389C60.0195 70.05 61.0412 70.5556 62.2485 70.5556ZM49.5712 70.5556C50.6856 70.5556 51.6492 70.1278 52.4619 69.2722C53.2745 68.4167 53.7505 67.3667 53.8898 66.1222L55.7009 52.6667H48.7353L45.5311 64.0222C45.0667 65.6296 45.2525 67.1204 46.0884 68.4944C46.9242 69.8685 48.0852 70.5556 49.5712 70.5556ZM88.3695 70.5556C89.8555 70.5556 91.028 69.8815 91.8871 68.5333C92.7462 67.1852 92.9435 65.6815 92.4792 64.0222L89.275 52.6667H82.3094L84.1205 66.1222C84.2598 67.3667 84.7358 68.4167 85.5484 69.2722C86.3611 70.1278 87.3014 70.5556 88.3695 70.5556ZM48.0387 99.3333H89.9019V75.1444C89.9483 75.1963 89.7974 75.2222 89.4491 75.2222C89.1009 75.2222 88.741 75.2222 88.3695 75.2222C87.2085 75.2222 86.1057 74.95 85.0608 74.4056C84.016 73.8611 82.9827 73.0185 81.9611 71.8778C81.2181 72.9148 80.2894 73.7315 79.1749 74.3278C78.0604 74.9241 76.8298 75.2222 75.4831 75.2222C74.09 75.2222 72.8943 75.0019 71.8959 74.5611C70.8975 74.1204 69.9339 73.3815 69.0051 72.3444C68.3086 73.2778 67.4263 73.9907 66.3582 74.4833C65.2902 74.9759 64.0828 75.2222 62.7361 75.2222C61.2966 75.2222 60.0195 74.937 58.905 74.3667C57.7905 73.7963 56.8386 72.9667 56.0491 71.8778C54.9347 72.9667 53.8434 73.7963 52.7753 74.3667C51.7073 74.937 50.6392 75.2222 49.5712 75.2222C49.2461 75.2222 48.9326 75.2222 48.6308 75.2222C48.329 75.2222 48.1316 75.1963 48.0387 75.1444V99.3333ZM89.9019 99.3333H48.0387C48.1316 99.3333 48.329 99.3333 48.6308 99.3333C48.9326 99.3333 49.2461 99.3333 49.5712 99.3333C50.3606 99.3333 51.3009 99.3333 52.3922 99.3333C53.4835 99.3333 54.7025 99.3333 56.0491 99.3333C56.4671 99.3333 56.9315 99.3333 57.4423 99.3333C57.9531 99.3333 58.4987 99.3333 59.0792 99.3333C59.6596 99.3333 60.2517 99.3333 60.8554 99.3333C61.4591 99.3333 62.086 99.3333 62.7361 99.3333C63.2469 99.3333 63.781 99.3333 64.3382 99.3333C64.8954 99.3333 65.4527 99.3333 66.0099 99.3333C66.5672 99.3333 67.1012 99.3333 67.612 99.3333C68.1228 99.3333 68.5872 99.3333 69.0051 99.3333C70.0268 99.3333 71.0484 99.3333 72.07 99.3333C73.0916 99.3333 74.2293 99.3333 75.4831 99.3333C76.1333 99.3333 76.7718 99.3333 77.3987 99.3333C78.0256 99.3333 78.6176 99.3333 79.1749 99.3333C79.7321 99.3333 80.243 99.3333 80.7073 99.3333C81.1717 99.3333 81.5896 99.3333 81.9611 99.3333C83.0292 99.3333 84.0972 99.3333 85.1653 99.3333C86.2334 99.3333 87.3014 99.3333 88.3695 99.3333C88.741 99.3333 89.1009 99.3333 89.4491 99.3333C89.7974 99.3333 89.9483 99.3333 89.9019 99.3333Z" fill="#323238"/>
</g>
</g>
</svg>
